<?xml version="1.0" encoding="UTF-8" standalone="no"?>
<!-- Generator: Adobe Illustrator 16.0.0, SVG Export Plug-In . SVG Version: 6.00 Build 0)  -->

<svg
   xmlns:dc="http://purl.org/dc/elements/1.1/"
   xmlns:cc="http://creativecommons.org/ns#"
   xmlns:rdf="http://www.w3.org/1999/02/22-rdf-syntax-ns#"
   xmlns:svg="http://www.w3.org/2000/svg"
   xmlns="http://www.w3.org/2000/svg"
   xmlns:sodipodi="http://sodipodi.sourceforge.net/DTD/sodipodi-0.dtd"
   xmlns:inkscape="http://www.inkscape.org/namespaces/inkscape"
   version="1.1"
   id="Capa_1"
   x="0px"
   y="0px"
   width="31.806px"
   height="31.806px"
   viewBox="0 0 31.806 31.806"
   style="enable-background:new 0 0 31.806 31.806;"
   xml:space="preserve"
   inkscape:version="0.48.5 r10040"
   sodipodi:docname="send4.svg"><metadata
   id="metadata45"><rdf:RDF><cc:Work
       rdf:about=""><dc:format>image/svg+xml</dc:format><dc:type
         rdf:resource="http://purl.org/dc/dcmitype/StillImage" /></cc:Work></rdf:RDF></metadata><defs
   id="defs43" /><sodipodi:namedview
   pagecolor="#ffffff"
   bordercolor="#666666"
   borderopacity="1"
   objecttolerance="10"
   gridtolerance="10"
   guidetolerance="10"
   inkscape:pageopacity="0"
   inkscape:pageshadow="2"
   inkscape:window-width="640"
   inkscape:window-height="480"
   id="namedview41"
   showgrid="false"
   inkscape:zoom="7.4199837"
   inkscape:cx="15.903"
   inkscape:cy="15.903"
   inkscape:window-x="0"
   inkscape:window-y="0"
   inkscape:window-maximized="0"
   inkscape:current-layer="Capa_1" />
<g
   id="g3">
	<g
   id="g5">
		<path
   d="M1.286,12.465c-0.685,0.263-1.171,0.879-1.268,1.606c-0.096,0.728,0.213,1.449,0.806,1.88l6.492,4.724L30.374,2.534    L9.985,22.621l8.875,6.458c0.564,0.41,1.293,0.533,1.964,0.33c0.67-0.204,1.204-0.713,1.444-1.368l9.494-25.986    c0.096-0.264,0.028-0.559-0.172-0.756c-0.199-0.197-0.494-0.259-0.758-0.158L1.286,12.465z"
   id="path7" />
		<path
   d="M5.774,22.246l0.055,0.301l1.26,6.889c0.094,0.512,0.436,0.941,0.912,1.148c0.476,0.206,1.025,0.162,1.461-0.119    c1.755-1.132,4.047-2.634,3.985-2.722L5.774,22.246z"
   id="path9" />
	</g>
</g>
<g
   id="g11">
</g>
<g
   id="g13">
</g>
<g
   id="g15">
</g>
<g
   id="g17">
</g>
<g
   id="g19">
</g>
<g
   id="g21">
</g>
<g
   id="g23">
</g>
<g
   id="g25">
</g>
<g
   id="g27">
</g>
<g
   id="g29">
</g>
<g
   id="g31">
</g>
<g
   id="g33">
</g>
<g
   id="g35">
</g>
<g
   id="g37">
</g>
<g
   id="g39">
</g>
<path
   style="fill:#00ccff;fill-opacity:1"
   d="m 19.261428,29.154692 c -0.32759,-0.168459 -2.521163,-1.709404 -4.874608,-3.424324 l -4.27899,-3.118037 10.169999,-10.0131 C 25.871328,7.0920262 30.421323,2.5596268 30.388929,2.5272326 30.356534,2.4948384 30.252756,2.5297879 30.15831,2.6048987 29.948614,2.7716632 8.486527,19.641639 7.7983926,20.180601 L 7.3083573,20.564408 4.0733549,18.210175 C 2.2941037,16.915347 0.68004683,15.667807 0.48656192,15.437863 -0.1915573,14.631965 0.12359736,13.175597 1.0835314,12.679196 1.315409,12.559287 8.1535149,9.9142181 16.279323,6.8012643 32.059004,0.75615182 31.671229,0.8833593 31.671229,1.7520435 c 0,0.1810862 -2.156401,6.2319279 -4.792004,13.4463145 -5.175466,14.166715 -5.027645,13.825376 -6.118484,14.128418 -0.679755,0.18884 -0.831266,0.17145 -1.499313,-0.172084 l 0,0 z"
   id="path3022"
   inkscape:connector-curvature="0" /><path
   style="fill:#0066ff;fill-opacity:1"
   d="M 7.986346,30.478734 C 7.7275213,30.363116 7.4673415,30.102243 7.3479063,29.838593 7.1807197,29.469533 5.9299322,23.088821 5.9299322,22.605002 c 0,-0.112373 6.7370848,4.581949 7.3109958,5.094217 0.148703,0.132731 -3.9403824,2.824809 -4.4134154,2.905603 -0.2223724,0.03798 -0.6008974,-0.01876 -0.8411666,-0.126088 z"
   id="path3024"
   inkscape:connector-curvature="0" /><path
   style="fill:#3771c8;fill-opacity:1"
   d="M 18.733195,28.689389 C 18.177264,28.325298 16.630764,27.240634 15.29653,26.279025 13.962295,25.317417 12.281527,24.108634 11.561491,23.592842 L 10.252333,22.655036 20.389003,12.577108 C 25.964172,7.0342471 30.422507,2.5160431 30.296414,2.5366545 30.170322,2.5572658 25.170995,6.4252163 19.186798,11.1321 13.202602,15.838984 8.075749,19.861518 7.7937914,20.071064 L 7.2811412,20.452058 4.8198185,18.656046 C 1.1088138,15.948151 0.43596613,15.378757 0.2801289,14.814361 0.1111443,14.20235 0.38599401,13.327073 0.86087316,12.964944 1.0455907,12.824083 2.1252394,12.349616 3.2600925,11.910573 22.239008,4.5681513 30.043063,1.6329283 30.987354,1.4819301 c 0.494845,-0.079129 0.549103,-0.060029 0.549103,0.1932901 0,0.720464 -8.689042,24.5547858 -9.638257,26.4380488 -0.425837,0.844871 -0.762879,1.107294 -1.512693,1.17779 -0.587854,0.05527 -0.726096,0.0049 -1.652312,-0.60167 l 0,0 z"
   id="path3026"
   inkscape:connector-curvature="0" /><path
   style="fill:#3771c8;fill-opacity:1"
   d="M 7.9287266,30.333015 C 7.7305286,30.225379 7.5055537,29.940373 7.4276609,29.698248 7.0814156,28.621964 6.0021357,23.009608 6.1189442,22.8928 c 0.1354358,-0.135436 6.9607248,4.687323 6.9049298,4.879033 -0.04853,0.166735 -2.782649,2.010458 -3.6191035,2.440498 -0.7275327,0.374042 -0.9726186,0.39408 -1.4760439,0.120684 l 0,0 z"
   id="path3028"
   inkscape:connector-curvature="0" /></svg>