<?xml version="1.0" encoding="UTF-8" standalone="no"?>
<!-- Generator: Adobe Illustrator 16.0.0, SVG Export Plug-In . SVG Version: 6.00 Build 0)  -->

<svg
   xmlns:dc="http://purl.org/dc/elements/1.1/"
   xmlns:cc="http://creativecommons.org/ns#"
   xmlns:rdf="http://www.w3.org/1999/02/22-rdf-syntax-ns#"
   xmlns:svg="http://www.w3.org/2000/svg"
   xmlns="http://www.w3.org/2000/svg"
   xmlns:sodipodi="http://sodipodi.sourceforge.net/DTD/sodipodi-0.dtd"
   xmlns:inkscape="http://www.inkscape.org/namespaces/inkscape"
   version="1.1"
   id="Capa_1"
   x="0px"
   y="0px"
   width="190.17px"
   height="190.171px"
   viewBox="0 0 190.17 190.171"
   style="enable-background:new 0 0 190.17 190.171;"
   xml:space="preserve"
   inkscape:version="0.48.5 r10040"
   sodipodi:docname="icon.svg"
   inkscape:export-filename="F:\github\2Desktop\icon.png"
   inkscape:export-xdpi="27.450001"
   inkscape:export-ydpi="27.450001"><metadata
   id="metadata47"><rdf:RDF><cc:Work
       rdf:about=""><dc:format>image/svg+xml</dc:format><dc:type
         rdf:resource="http://purl.org/dc/dcmitype/StillImage" /><dc:title></dc:title></cc:Work></rdf:RDF></metadata><defs
   id="defs45" /><sodipodi:namedview
   pagecolor="#ffffff"
   bordercolor="#666666"
   borderopacity="1"
   objecttolerance="10"
   gridtolerance="10"
   guidetolerance="10"
   inkscape:pageopacity="0"
   inkscape:pageshadow="2"
   inkscape:window-width="639"
   inkscape:window-height="480"
   id="namedview43"
   showgrid="false"
   inkscape:zoom="1.2409883"
   inkscape:cx="95.084999"
   inkscape:cy="95.085503"
   inkscape:window-x="1"
   inkscape:window-y="0"
   inkscape:window-maximized="0"
   inkscape:current-layer="Capa_1" />
<g
   id="g3"
   style="fill:#3771c8">
	<g
   id="g5"
   style="fill:#3771c8">
		<path
   d="M127.075,122.114v-0.767H15.281c-4.987,0-9.045-4.056-9.045-9.049V33.673c0-4.987,4.058-9.045,9.045-9.045h146.143    c4.993,0,9.049,4.058,9.049,9.045V38.9h6.235v-5.228c0-8.406-6.881-15.281-15.284-15.281H15.281C6.877,18.392,0,25.276,0,33.673    v97.326c0,8.409,6.884,15.283,15.281,15.283h66.837v13.025H35.354l-6.235,6.235v6.235h118.471v-6.235l-6.235-6.235H94.589v-13.019    h66.834c5.554,0,10.4-3.032,13.067-7.496h-30.726C134.558,138.793,127.075,131.31,127.075,122.114z"
   id="path7"
   style="fill:#3771c8" />
		<path
   d="M179.715,45.142h-35.963c-5.742,0-10.448,4.695-10.448,10.443v66.529c0,5.742,4.7,10.443,10.448,10.443h35.963    c5.748,0,10.455-4.701,10.455-10.443V55.585C190.17,49.837,185.469,45.142,179.715,45.142z M161.74,127.888    c-2.009,0-3.641-1.626-3.641-3.636c0-2.003,1.632-3.642,3.641-3.642c2.004,0,3.63,1.639,3.63,3.642    C165.37,126.262,163.744,127.888,161.74,127.888z M185.902,109.327c0,3.404-2.771,6.188-6.187,6.188h-35.963    c-3.409,0-6.187-2.783-6.187-6.188V55.579c0-3.398,2.777-6.18,6.187-6.18h35.963c3.416,0,6.187,2.782,6.187,6.18V109.327z"
   id="path9"
   style="fill:#3771c8" />
		<polygon
   points="84.986,61.57 84.986,76.367 66.917,76.367 66.917,88.944 84.986,88.944 84.986,103.659 127.075,82.608 "
   id="polygon11"
   style="fill:#3771c8"
   transform="matrix(-1,0,0,1,193.992,0)" />
	</g>
</g>
<g
   id="g13"
   style="fill:#3771c8">
</g>
<g
   id="g15"
   style="fill:#3771c8">
</g>
<g
   id="g17"
   style="fill:#3771c8">
</g>
<g
   id="g19"
   style="fill:#3771c8">
</g>
<g
   id="g21"
   style="fill:#3771c8">
</g>
<g
   id="g23"
   style="fill:#3771c8">
</g>
<g
   id="g25"
   style="fill:#3771c8">
</g>
<g
   id="g27"
   style="fill:#3771c8">
</g>
<g
   id="g29"
   style="fill:#3771c8">
</g>
<g
   id="g31"
   style="fill:#3771c8">
</g>
<g
   id="g33"
   style="fill:#3771c8">
</g>
<g
   id="g35"
   style="fill:#3771c8">
</g>
<g
   id="g37"
   style="fill:#3771c8">
</g>
<g
   id="g39"
   style="fill:#3771c8">
</g>
<g
   id="g41"
   style="fill:#3771c8">
</g>
</svg>